<?xml version="1.0" encoding="utf-8"?>
<!-- Generator: Adobe Illustrator 16.0.0, SVG Export Plug-In . SVG Version: 6.00 Build 0)  -->
<!DOCTYPE svg PUBLIC "-//W3C//DTD SVG 1.1//EN" "http://www.w3.org/Graphics/SVG/1.1/DTD/svg11.dtd">
<svg version="1.1" id="Layer_1" xmlns="http://www.w3.org/2000/svg" xmlns:xlink="http://www.w3.org/1999/xlink" x="0px" y="0px"
	 width="640px" height="480px" viewBox="0 0 640 480" enable-background="new 0 0 640 480" xml:space="preserve">
<g>
	<g>
		<g>
			<defs>
				<rect id="SVGID_1_" x="124.67" y="45.887" width="389.215" height="389.215"/>
			</defs>
			<clipPath id="SVGID_2_">
				<use xlink:href="#SVGID_1_"  overflow="visible"/>
			</clipPath>
			<path clip-path="url(#SVGID_2_)" fill="#4267B2" d="M492.372,45.887H146.107c-11.859,0-21.437,9.654-21.437,21.513v346.188
				c0,11.859,9.654,21.438,21.513,21.438h346.265c11.858,0,21.513-9.578,21.513-21.513l0,0V67.324
				C513.886,55.465,504.23,45.887,492.372,45.887L492.372,45.887z"/>
		</g>
	</g>
	<path fill="#FFFFFF" d="M393.396,435.102V284.585h50.78l7.602-58.915h-58.382v-37.553c0-17.028,4.713-28.583,29.114-28.583h30.939
		v-52.529c-5.396-0.684-23.869-2.28-45.307-2.28c-44.851,0-75.563,27.367-75.563,77.615v43.331h-50.552v58.915h50.552v150.517
		H393.396z"/>
</g>
</svg>
