<?xml version="1.0" encoding="iso-8859-1"?>
<!-- Generator: Adobe Illustrator 23.0.0, SVG Export Plug-In . SVG Version: 6.00 Build 0)  -->
<svg version="1.1" id="Layer_1" xmlns="http://www.w3.org/2000/svg" xmlns:xlink="http://www.w3.org/1999/xlink" x="0px" y="0px"
	 viewBox="0 0 213.5 185.1" style="enable-background:new 0 0 213.5 185.1;" xml:space="preserve">
<path style="fill-rule:evenodd;clip-rule:evenodd;fill:#4A8AF4;" d="M14.8,68h184.6v103.6c0,7.4-6.1,13.5-13.5,13.5H28.3
	c-7.4,0-13.5-6.1-13.5-13.5V68L14.8,68z"/>
<path style="fill-rule:evenodd;clip-rule:evenodd;fill:#80ADF7;" d="M3.3,56.4L0,68c0,0.4,0,0.9,0,1.3C0,84,12,95.9,26.9,95.9
	c14.6,0,26.4-11.4,26.9-25.7c0-0.3,0-0.6,0-0.9s0-0.6,0-0.9c0-0.1,0-0.3,0-0.4h-0.1l8.8-67.9H28.2c-6.3,0-11.6,4.3-13.1,10.2
	L3.3,56.4L3.3,56.4z"/>
<path style="fill-rule:evenodd;clip-rule:evenodd;fill:#4A5BB9;" d="M107,68L107,68L107,68V0.1H62.5L53.7,68c0,0.4,0,0.9,0,1.3
	c0,14.7,11.9,26.6,26.7,26.6c14.4,0,26.2-11.4,26.7-25.7c0-0.3,0-0.6,0-0.9s0-0.6,0-0.9C107,68.2,107,68.1,107,68L107,68L107,68z"/>
<path style="fill-rule:evenodd;clip-rule:evenodd;fill:#4A7DE2;" d="M53.8,70.4c-0.6,14.2-12.4,25.5-26.9,25.5
	c-4.4,0-8.5-1-12.2-2.9v0.1L107,185h78.8c7.4,0,13.5-6.1,13.5-13.5V92.7c8.1-4.4,13.7-12.8,14-22.6c0-0.3,0-0.6,0-0.9s0-0.6,0-0.9
	v-0.4h-14h-38.7h-0.4l0,0c0,0.1,0,0.2,0,0.4c0,0.3,0,0.6,0,0.9s0,0.6,0,0.9c0,0.1,0,0.2,0,0.4c-0.7,14.1-12.3,25.3-26.6,25.3
	c-14.4,0-26.1-11.4-26.6-25.7c-0.5,14.3-12.2,25.7-26.6,25.7C66.1,95.9,54.4,84.6,53.8,70.4L53.8,70.4z"/>
<path style="fill-rule:evenodd;clip-rule:evenodd;fill:#80ADF7;" d="M159.5,62.6L151.3,0H107v67.9l0,0l0,0c0,0.4,0,0.9,0,1.3
	c0,14.7,11.9,26.6,26.6,26.6c14.4,0,26.1-11.4,26.6-25.7c0-0.3,0-0.6,0-0.9s0-0.6,0-0.9c0-0.1,0-0.3,0-0.4h-0.1L159.5,62.6
	L159.5,62.6z"/>
<path style="fill-rule:evenodd;clip-rule:evenodd;fill:#4A5BB9;" d="M160.3,68c0,0.4,0,0.9,0,1.3c0,14.7,11.9,26.6,26.6,26.6
	c14.4,0,26.1-11.4,26.6-25.7c0-0.3,0-0.6,0-0.9s0-0.6,0-0.9c0-0.1,0-0.3,0-0.4l-2.8-11.6l-11.9-46.2C197.3,4.4,192,0,185.7,0h-34.3
	l8.8,67.9h0.1V68z"/>
<path style="fill:#FFFFFF;" d="M183.5,144.4v-0.2c0-1.8-0.2-3.6-0.5-5.3h-25.1v10.3h14.3c-0.6,3.3-2.5,6.2-5.3,8.1v6.7h8.6
	C180.5,159.3,183.5,152.5,183.5,144.4L183.5,144.4z"/>
<path style="fill:#FFFFFF;" d="M157.9,170.4c7.2,0,13.2-2.4,17.7-6.5l-8.6-6.7c-2.4,1.6-5.4,2.5-9,2.5c-6.9,0-12.8-4.7-14.9-11h-8.9
	v6.9C138.4,164.5,147.4,170.4,157.9,170.4L157.9,170.4L157.9,170.4L157.9,170.4z"/>
<path style="fill:#FFFFFF;" d="M142.9,148.8c-0.5-1.6-0.8-3.3-0.8-5.1c0-1.8,0.3-3.5,0.8-5.1v-6.9H134c-1.8,3.6-2.8,7.7-2.8,12
	s1,8.4,2.8,12L142.9,148.8L142.9,148.8L142.9,148.8L142.9,148.8z"/>
<path style="fill:#FFFFFF;" d="M157.9,127.7c3.9,0,7.4,1.3,10.2,4l7.7-7.7c-4.6-4.3-10.7-6.9-17.8-6.9c-10.4,0-19.4,6-23.8,14.7
	l8.9,6.9C145,132.4,150.9,127.7,157.9,127.7L157.9,127.7L157.9,127.7L157.9,127.7z"/>
<path style="fill-rule:evenodd;clip-rule:evenodd;fill:#78A1E4;" d="M53.8,68H0c0,0.4,0,0.9,0,1.3C0,84,12.1,95.9,26.9,95.9
	c14.6,0,26.4-11.4,26.9-25.7c0-0.3,0-0.6,0-0.9s0-0.6,0-0.9C53.8,68.2,53.8,68.1,53.8,68L53.8,68z"/>
<path style="fill-rule:evenodd;clip-rule:evenodd;fill:#78A1E4;" d="M160.3,68h-53.2c0,0.4,0,0.9,0,1.3c0,14.7,11.9,26.6,26.6,26.6
	c14.4,0,26.1-11.4,26.6-25.7c0-0.3,0-0.6,0-0.9s0-0.6,0-0.9C160.3,68.2,160.3,68.1,160.3,68L160.3,68z"/>
<path style="fill-rule:evenodd;clip-rule:evenodd;fill:#4857AD;" d="M106.9,68H53.8c0,0.4,0,0.9,0,1.3c0,14.7,11.9,26.6,26.6,26.6
	c14.4,0,26.1-11.4,26.6-25.7c0-0.3,0-0.6,0-0.9s0-0.6,0-0.9C106.9,68.2,106.9,68.1,106.9,68L106.9,68z"/>
<path style="fill-rule:evenodd;clip-rule:evenodd;fill:#4857AD;" d="M213.4,68h-53.1c0,0.4,0,0.9,0,1.3c0,14.7,11.9,26.6,26.6,26.6
	c14.4,0,26.1-11.4,26.6-25.7c0-0.3,0-0.6,0-0.9s0-0.6,0-0.9C213.4,68.2,213.4,68.1,213.4,68L213.4,68z"/>
</svg>
