<?xml version="1.0" encoding="utf-8"?>
<!-- Generator: Adobe Illustrator 23.0.0, SVG Export Plug-In . SVG Version: 6.00 Build 0)  -->
<svg version="1.1" id="Layer_1" xmlns="http://www.w3.org/2000/svg" xmlns:xlink="http://www.w3.org/1999/xlink" x="0px" y="0px"
	 viewBox="0 0 841.9 595.3" style="enable-background:new 0 0 841.9 595.3;" xml:space="preserve">
<style type="text/css">
	.st0{clip-path:url(#SVGID_3_);}
	.st1{clip-path:url(#SVGID_4_);}
	.st2{clip-path:url(#SVGID_9_);}
	.st3{clip-path:url(#SVGID_10_);}
	.st4{clip-path:url(#SVGID_15_);}
	.st5{clip-path:url(#SVGID_16_);}
</style>
<g>
	<g>
		<defs>
			<path id="SVGID_1_" d="M674.5,192.7c-1.2-27.3-5.6-45.9-11.9-62.1c-6.4-17.1-16.5-32.6-29.5-45.3c-12.8-13-28.3-23.1-45.3-29.5
				c-16.3-6.3-34.9-10.6-62.1-11.9c-27.3-1.2-36-1.5-105.5-1.5s-78.2,0.3-105.5,1.5c-27.3,1.2-45.9,5.6-62.1,11.9
				c-17.1,6.4-32.6,16.5-45.3,29.5c-13,12.8-23.1,28.3-29.5,45.3c-6.3,16.3-10.6,34.9-11.9,62.1c-1.2,27.3-1.5,36-1.5,105.5
				c0,69.5,0.3,78.2,1.5,105.6c1.2,27.2,5.6,45.9,11.9,62.1c6.4,17.1,16.5,32.6,29.5,45.3c12.8,13,28.3,23.1,45.3,29.5
				c16.3,6.3,34.9,10.7,62.1,11.9c27.3,1.2,36,1.5,105.5,1.5c69.5,0,78.2-0.3,105.5-1.5c27.3-1.2,45.9-5.6,62.1-11.9
				c34.4-13.3,61.6-40.5,74.9-74.9c6.3-16.3,10.7-34.9,11.9-62.1c1.2-27.3,1.5-36,1.5-105.5C676,228.7,675.7,220,674.5,192.7
				L674.5,192.7z M628.4,401.7c-1.1,25-5.3,38.5-8.8,47.5c-8.6,22.3-26.3,40-48.6,48.6c-9,3.5-22.6,7.7-47.5,8.8
				c-27,1.2-35.1,1.5-103.4,1.5c-68.4,0-76.5-0.3-103.4-1.5c-25-1.1-38.5-5.3-47.5-8.8c-11.1-4.1-21.2-10.6-29.4-19.2
				c-8.5-8.3-15-18.3-19.2-29.4c-3.5-9-7.7-22.6-8.8-47.5c-1.2-27-1.5-35.1-1.5-103.4c0-68.4,0.3-76.5,1.5-103.4
				c1.1-25,5.3-38.5,8.8-47.5c4.1-11.1,10.7-21.2,19.2-29.4c8.3-8.5,18.3-15,29.4-19.1c9-3.5,22.6-7.7,47.5-8.8
				c27-1.2,35.1-1.5,103.4-1.5h0c68.4,0,76.5,0.3,103.4,1.5c25,1.1,38.5,5.3,47.5,8.8c11.1,4.1,21.2,10.6,29.4,19.1
				c8.5,8.3,15,18.3,19.1,29.4c3.5,9,7.7,22.6,8.8,47.5c1.2,27,1.5,35.1,1.5,103.4C629.9,366.6,629.6,374.7,628.4,401.7L628.4,401.7
				z M628.4,401.7"/>
		</defs>
		<defs>
			<rect id="SVGID_2_" x="164" y="42.3" width="512" height="512"/>
		</defs>
		<clipPath id="SVGID_3_">
			<use xlink:href="#SVGID_1_"  style="overflow:visible;"/>
		</clipPath>
		<clipPath id="SVGID_4_" class="st0">
			<use xlink:href="#SVGID_2_"  style="overflow:visible;"/>
		</clipPath>
		<g class="st1">
			<defs>
				<rect id="SVGID_5_" x="164" y="42.1" width="512.2" height="512.2"/>
			</defs>
			<clipPath id="SVGID_6_">
				<use xlink:href="#SVGID_5_"  style="overflow:visible;"/>
			</clipPath>
			<g style="clip-path:url(#SVGID_6_);">
				
					<image style="overflow:visible;" width="1072" height="1070" xlink:href="4FC910F0.jpg"  transform="matrix(0.48 0 0 -0.48 163.2416 555.0344)">
				</image>
			</g>
		</g>
	</g>
	<g>
		<defs>
			<path id="SVGID_7_" d="M420,166.8c-72.6,0-131.5,58.9-131.5,131.5S347.4,429.7,420,429.7c72.6,0,131.5-58.9,131.5-131.5
				S492.6,166.8,420,166.8L420,166.8z M420,383.6c-47.1,0-85.3-38.2-85.3-85.3c0-47.1,38.2-85.3,85.3-85.3
				c47.1,0,85.3,38.2,85.3,85.3C505.3,345.4,467.1,383.6,420,383.6L420,383.6z M420,383.6"/>
		</defs>
		<defs>
			<rect id="SVGID_8_" x="164" y="42.3" width="512" height="512"/>
		</defs>
		<clipPath id="SVGID_9_">
			<use xlink:href="#SVGID_7_"  style="overflow:visible;"/>
		</clipPath>
		<clipPath id="SVGID_10_" class="st2">
			<use xlink:href="#SVGID_8_"  style="overflow:visible;"/>
		</clipPath>
		<g class="st3">
			<defs>
				<rect id="SVGID_11_" x="288.3" y="166.7" width="263.3" height="263.3"/>
			</defs>
			<clipPath id="SVGID_12_">
				<use xlink:href="#SVGID_11_"  style="overflow:visible;"/>
			</clipPath>
			<g style="clip-path:url(#SVGID_12_);">
				
					<image style="overflow:visible;" width="556" height="552" xlink:href="4FC910F1.jpg"  transform="matrix(0.48 0 0 -0.48 287.4992 430.7768)">
				</image>
			</g>
		</g>
	</g>
	<g>
		<defs>
			<path id="SVGID_13_" d="M587.4,161.6c0,17-13.8,30.7-30.7,30.7c-17,0-30.7-13.8-30.7-30.7c0-17,13.8-30.7,30.7-30.7
				C573.6,130.9,587.4,144.7,587.4,161.6L587.4,161.6z M587.4,161.6"/>
		</defs>
		<defs>
			<rect id="SVGID_14_" x="164" y="42.3" width="512" height="512"/>
		</defs>
		<clipPath id="SVGID_15_">
			<use xlink:href="#SVGID_13_"  style="overflow:visible;"/>
		</clipPath>
		<clipPath id="SVGID_16_" class="st4">
			<use xlink:href="#SVGID_14_"  style="overflow:visible;"/>
		</clipPath>
		<g class="st5">
			<defs>
				<rect id="SVGID_17_" x="525.9" y="130.7" width="61.7" height="61.7"/>
			</defs>
			<clipPath id="SVGID_18_">
				<use xlink:href="#SVGID_17_"  style="overflow:visible;"/>
			</clipPath>
			<g style="clip-path:url(#SVGID_18_);">
				
					<image style="overflow:visible;" width="136" height="133" xlink:href="4FC910F7.jpg"  transform="matrix(0.48 0 0 -0.48 524.7152 193.5608)">
				</image>
			</g>
		</g>
	</g>
</g>
</svg>
