<?xml version="1.0" encoding="utf-8"?>
<!-- Generator: Adobe Illustrator 23.0.0, SVG Export Plug-In . SVG Version: 6.00 Build 0)  -->
<svg version="1.1" id="Layer_1" xmlns="http://www.w3.org/2000/svg" xmlns:xlink="http://www.w3.org/1999/xlink" x="0px" y="0px"
	 viewBox="0 0 20 20" style="enable-background:new 0 0 20 20;" xml:space="preserve">
<path d="M18.4,0H1.6C0.7,0,0,0.7,0,1.6v16.8C0,19.3,0.7,20,1.6,20h16.8c0.9,0,1.6-0.7,1.6-1.6V1.6C20,0.7,19.3,0,18.4,0z M18.4,18.4
	c-11.2,0-16.8,0-16.8,0c0-11.2,0-16.8,0-16.8c11.2,0,16.8,0,16.8,0C18.4,12.8,18.4,18.4,18.4,18.4z M3,7.5h3V17H3V7.5z M4.4,6.2
	c0.9,0,1.7-0.8,1.7-1.7c0-0.2,0-0.4-0.1-0.7C6,3.6,5.8,3.4,5.7,3.3C5.5,3.1,5.3,3,5.1,2.9C4.9,2.8,4.7,2.8,4.4,2.8
	c-0.2,0-0.4,0-0.7,0.1C3.6,3,3.4,3.1,3.2,3.3C3.1,3.4,2.9,3.6,2.9,3.8C2.8,4,2.7,4.2,2.7,4.5C2.7,5.4,3.5,6.2,4.4,6.2z M10.8,12.3
	c0-1.2,0.2-2.4,1.8-2.4c1.5,0,1.5,1.4,1.5,2.5V17h3v-5.2c0-2.6-0.6-4.5-3.6-4.5c-1.4,0-2.4,0.8-2.8,1.5h0V7.5H7.8V17h3V12.3z"/>
</svg>
