<?xml version="1.0" encoding="utf-8"?>
<!-- Generator: Adobe Illustrator 23.0.0, SVG Export Plug-In . SVG Version: 6.00 Build 0)  -->
<svg version="1.1" id="Layer_1" xmlns="http://www.w3.org/2000/svg" xmlns:xlink="http://www.w3.org/1999/xlink" x="0px" y="0px"
	 viewBox="0 0 24 20" style="enable-background:new 0 0 24 20;" xml:space="preserve">
<style type="text/css">
	.st0{fill-rule:evenodd;clip-rule:evenodd;}
</style>
<path class="st0" d="M14.5,0.4c1-0.4,2.2-0.5,3.3-0.2c0.9,0.2,1.7,0.6,2.3,1.2c0.8-0.3,1.6-0.7,2.3-1.2L23,1l1,0.2
	c-0.3,1.4-1,2.7-2,3.8c0,0.2,0,0.3,0,0.5v0c0,6.1-2.9,10.6-7.2,12.8c-4.2,2.2-9.6,2.2-14.3-0.4c-0.4-0.2-0.6-0.7-0.5-1.1
	C0.2,16.3,0.6,16,1,16c1.7,0.1,3.4-0.3,4.9-1c-1.5-0.9-2.6-2-3.3-3.2c-1-1.6-1.4-3.3-1.5-4.8C1.1,5.6,1.3,4.2,1.5,3.2
	c0.1-0.5,0.3-0.9,0.4-1.2C2,1.9,2,1.8,2,1.7c0,0,0-0.1,0-0.1l0,0l0,0c0,0,0,0,0,0L3,2l0.8-0.6C4.7,2.7,6,3.8,7.4,4.5
	c1.1,0.6,2.4,0.9,3.6,1c0-1.1,0.3-2.2,0.9-3.1C12.6,1.5,13.5,0.8,14.5,0.4z M3.4,4.1C3.2,4.9,3.1,5.9,3.1,7c0.1,1.2,0.4,2.6,1.1,3.8
	c0.8,1.2,2,2.4,4.1,3.3C8.7,14.2,9,14.6,9,14.9c0,0.4-0.1,0.7-0.4,0.9c-1.1,0.8-2.3,1.3-3.6,1.7c3.2,0.8,6.3,0.4,8.9-1
	c3.5-1.9,6.1-5.7,6.1-11.1c0-0.2,0-0.4-0.1-0.6c-0.1-0.3,0-0.7,0.3-0.9c0.2-0.2,0.4-0.5,0.6-0.7c-0.2,0.1-0.5,0.2-0.7,0.2
	c-0.4,0.1-0.8,0-1-0.3c-0.5-0.5-1.1-0.9-1.8-1.1c-0.7-0.2-1.4-0.1-2.1,0.1c-0.7,0.3-1.2,0.7-1.6,1.3c-0.4,0.6-0.6,1.3-0.6,2l0,0h0v1
	c0,0.5-0.4,1-1,1c-1.9,0-3.8-0.4-5.5-1.2C5.3,5.7,4.3,5,3.4,4.1z"/>
</svg>
