<?xml version="1.0" encoding="utf-8"?>
<!-- Generator: Adobe Illustrator 16.0.0, SVG Export Plug-In . SVG Version: 6.00 Build 0)  -->
<!DOCTYPE svg PUBLIC "-//W3C//DTD SVG 1.1//EN" "http://www.w3.org/Graphics/SVG/1.1/DTD/svg11.dtd">
<svg version="1.1" id="Layer_1" xmlns="http://www.w3.org/2000/svg" xmlns:xlink="http://www.w3.org/1999/xlink" x="0px" y="0px"
	 width="640px" height="480px" viewBox="0 0 640 480" enable-background="new 0 0 640 480" xml:space="preserve">
<g>
	<g>
		<g>
			<defs>
				
					<rect id="SVGID_1_" x="158.195" y="29.511" transform="matrix(-1 -0.0016 0.0016 -1 635.3279 485.2811)" width="319.32" height="425.76"/>
			</defs>
			<clipPath id="SVGID_2_">
				<use xlink:href="#SVGID_1_"  overflow="visible"/>
			</clipPath>
			<path clip-path="url(#SVGID_2_)" fill="#F44336" d="M318.806,342.847c0.691-16.52-22.468-24.761-32.468-11.917
				c-21.55,26.023-62.095,73.192-64.432,78.955c-6.237,17.729,22.684,29.083,40.967,35.988c19.835,7.459,34.022,10.587,42.451,9.157
				c6.1-1.209,9.985-4.419,11.878-9.406C318.873,441.083,318.8,346.728,318.806,342.847L318.806,342.847z"/>
		</g>
		<g>
			<defs>
				
					<rect id="SVGID_3_" x="158.195" y="29.511" transform="matrix(-1 -0.0016 0.0016 -1 635.3279 485.2811)" width="319.32" height="425.76"/>
			</defs>
			<clipPath id="SVGID_4_">
				<use xlink:href="#SVGID_3_"  overflow="visible"/>
			</clipPath>
			<path clip-path="url(#SVGID_4_)" fill="#F44336" d="M309.745,40.807c-1.432-5.545-5.196-9.1-11.514-10.662
				c-18.397-4.907-88.168,14.719-101.163,28.668c-4.108,4.207-5.669,9.083-4.458,14.629l88.256,142.059
				c18.027,28.967,40.77,20.243,39.27-12.024l0,0C319.058,182.299,310.732,47.905,309.745,40.807L309.745,40.807z"/>
		</g>
		<g>
			<defs>
				
					<rect id="SVGID_5_" x="158.195" y="29.511" transform="matrix(-1 -0.0016 0.0016 -1 635.3279 485.2811)" width="319.32" height="425.76"/>
			</defs>
			<clipPath id="SVGID_6_">
				<use xlink:href="#SVGID_5_"  overflow="visible"/>
			</clipPath>
			<path clip-path="url(#SVGID_6_)" fill="#F44336" d="M271.862,299.751c16.751-5.072,15.458-29.578,1.276-35.365
				c-37.895-15.693-89.75-37.617-93.742-37.623c-15.521-0.912-18.549,21.26-20.126,37.11c-1.464,14.413-1.485,27.495-0.284,39.583
				c1.199,12.642,3.84,25.618,16.478,26.415C181.009,329.768,271.086,299.973,271.862,299.751L271.862,299.751z"/>
		</g>
		<g>
			<defs>
				
					<rect id="SVGID_7_" x="158.195" y="29.511" transform="matrix(-1 -0.0016 0.0016 -1 635.3279 485.2811)" width="319.32" height="425.76"/>
			</defs>
			<clipPath id="SVGID_8_">
				<use xlink:href="#SVGID_7_"  overflow="visible"/>
			</clipPath>
			<path clip-path="url(#SVGID_8_)" fill="#F44336" d="M468.866,243.515c7.104-4.977,6.116-12.408,6.231-14.846
				c-1.857-18.187-32.386-64.138-47.674-71.59c-5.762-2.67-10.862-2.567-15.192,0.53c-5.771,3.873-57.556,78.742-60.665,81.841
				c-10.111,13.623,4.27,33.159,19.358,29.302l-0.224,0.555C376.691,267.209,464.203,246.611,468.866,243.515L468.866,243.515z"/>
		</g>
		<g>
			<defs>
				
					<rect id="SVGID_9_" x="158.195" y="29.511" transform="matrix(-1 -0.0016 0.0016 -1 635.3279 485.2811)" width="319.32" height="425.76"/>
			</defs>
			<clipPath id="SVGID_10_">
				<use xlink:href="#SVGID_9_"  overflow="visible"/>
			</clipPath>
			<path clip-path="url(#SVGID_10_)" fill="#F44336" d="M376.631,306.127c-15.626-5.568-30.404,14.366-21.334,28.017
				c2.544,4.438,49.652,83.567,53.862,86.457c3.984,3.443,8.974,3.894,14.742,1.686c16.088-6.403,50.861-50.922,53.219-68.326
				c0.895-6.207-0.761-10.978-5.079-14.421C468.498,336.428,376.631,306.127,376.631,306.127L376.631,306.127z"/>
		</g>
	</g>
</g>
</svg>
